# Blender 4.0.2
# www.blender.org
o tile_for_home_2x2_007.166
v 0.209845 4.812482 -1.270443
v -0.178905 4.812482 -1.270443
v 0.209845 4.952975 -2.036092
v -0.178905 4.952975 -2.036091
v 0.015471 4.794418 -1.171998
v 0.015469 4.971040 -2.134537
v 0.141329 5.014454 -1.271945
v 0.210651 4.942521 -1.246041
v -0.110388 5.014454 -1.271945
v -0.179712 4.942521 -1.246041
v 0.141327 5.141256 -1.962978
v 0.210651 5.083206 -2.012735
v -0.110390 5.141256 -1.962978
v -0.179712 5.083206 -2.012734
v 0.015471 4.924490 -1.147190
v 0.015471 5.028147 -1.222988
v 0.015469 5.101445 -2.111547
v 0.015469 5.171438 -2.003886
v 0.202488 4.821071 -1.285772
v -0.171549 4.821071 -1.285772
v 0.202486 4.955548 -2.018703
v -0.171547 4.955548 -2.018703
v 0.015471 4.804524 -1.190045
v 0.015469 4.974069 -2.114072
v 0.015471 4.709875 -1.264255
v 0.161165 4.739909 -1.345830
v -0.130623 4.858357 -1.991385
v -0.130226 4.739909 -1.345830
v 0.015469 4.859246 -2.078303
v 0.161562 4.858357 -1.991385
v -0.168781 4.886496 -1.652580
v 0.199722 4.886496 -1.652580
v -0.140978 4.769772 -1.673996
v 0.171917 4.769772 -1.673996
v 0.015469 4.745008 -1.678538
v -0.062099 -0.012103 0.017547
v -0.062246 4.491413 0.016944
v -0.025354 -0.012103 -0.064987
v -0.024788 4.493736 -0.065505
v 0.064495 -0.012103 -0.055542
v 0.063955 4.493441 -0.056208
v 0.083281 -0.012103 0.032827
v 0.083519 4.491113 0.032353
v 0.005039 -0.012103 0.078000
v 0.004976 4.490395 0.078060
v 0.005030 4.982909 -1.342359
v 0.005024 4.764415 -0.224866
v 0.083307 4.938363 -1.350241
v 0.083340 4.719755 -0.232541
v 0.064457 4.851372 -1.365629
v 0.064386 4.632649 -0.247369
v -0.025320 4.842087 -1.367271
v -0.025213 4.623355 -0.248957
v -0.062119 4.923307 -1.352905
v -0.062134 4.704671 -0.235133
v -0.062704 4.621473 -0.008523
v -0.062269 4.667204 -0.089459
v 0.004881 4.658230 0.041997
v 0.004959 4.725527 -0.071024
v 0.084116 4.630734 0.004198
v 0.083574 4.681862 -0.084842
v 0.063042 4.584834 -0.093852
v -0.023771 4.579962 -0.101498
vn -1.0000 -0.0060 -0.0011
vn 0.4578 0.1542 -0.8756
vn -0.4578 0.1543 -0.8756
vn -0.4577 0.1543 -0.8756
vn -0.4578 0.1542 -0.8756
vn 0.1745 0.9685 0.1777
vn -0.1562 -0.9498 -0.2712
vn -0.1575 -0.9497 -0.2705
vn -0.1582 -0.9497 -0.2702
vn -0.1745 0.9685 0.1777
vn -0.4578 -0.1667 0.8733
vn 0.1575 -0.9497 -0.2706
vn 0.1562 -0.9498 -0.2712
vn 0.1582 -0.9497 -0.2702
vn 1.0000 -0.0060 -0.0011
vn -0.3336 0.5722 0.7492
vn -0.3421 0.5638 0.7517
vn -0.3538 0.5521 0.7550
vn -0.6900 0.7119 0.1306
vn -0.6899 0.7120 0.1306
vn 0.3336 0.8010 -0.4972
vn 0.3421 0.7940 -0.5026
vn 0.3538 0.7842 -0.5098
vn 0.6899 0.7120 0.1306
vn 0.6900 0.7120 0.1306
vn 0.3336 0.5722 0.7492
vn 0.3421 0.5638 0.7517
vn 0.3243 0.5813 0.7463
vn -0.3336 0.8009 -0.4972
vn -0.3421 0.7939 -0.5026
vn -0.3243 0.8084 -0.4913
vn 0.4578 -0.1667 0.8733
vn 0.4577 -0.1666 0.8733
vn -0.4465 -0.6277 0.6377
vn -0.4315 -0.5943 0.6787
vn -0.4159 -0.5611 0.7156
vn -0.4462 -0.3593 -0.8196
vn -0.4313 -0.3141 -0.8458
vn -0.4633 -0.4152 -0.7829
vn 0.4466 -0.6276 0.6377
vn 0.4315 -0.5943 0.6787
vn 0.4638 -0.6673 0.5827
vn 0.4462 -0.3593 -0.8196
vn 0.4313 -0.3141 -0.8458
vn 0.4160 -0.2705 -0.8682
vn 0.9639 -0.2663 -0.0061
vn 0.9244 -0.3761 -0.0636
vn 0.9723 -0.2336 0.0106
vn -0.9641 -0.2506 -0.0878
vn -0.9255 -0.3715 -0.0734
vn -0.9724 -0.2148 -0.0917
vn -0.9639 -0.2663 -0.0061
vn -0.9244 -0.3761 -0.0636
vn -0.9108 -0.4051 -0.0791
vn 0.9641 -0.2506 -0.0878
vn 0.9255 -0.3715 -0.0734
vn 0.9123 -0.4036 -0.0692
vn 0.1576 -0.9839 -0.0841
vn 0.1566 -0.9841 -0.0837
vn 0.1562 -0.9842 -0.0835
vn -0.1566 -0.9841 -0.0836
vn -0.1576 -0.9839 -0.0841
vn -0.1561 -0.9842 -0.0835
vn -0.9105 0.0001 -0.4135
vn -0.9135 -0.0001 -0.4068
vn -0.9136 -0.0001 -0.4067
vn 0.1045 -0.0001 -0.9945
vn 0.9781 -0.0001 -0.2079
vn 0.9765 0.0001 -0.2156
vn -0.6727 0.0001 0.7400
vn -0.6692 -0.0000 0.7431
vn -0.6691 -0.0000 0.7431
vn 0.5003 0.8497 0.1661
vn 0.5007 0.8495 0.1661
vn -0.6700 0.7286 0.1425
vn 0.9780 -0.2048 -0.0401
vn 0.9778 -0.2058 -0.0401
vn 0.9777 -0.2030 -0.0542
vn 0.1044 -0.9760 -0.1909
vn 0.1046 -0.9760 -0.1909
vn -0.9127 -0.4011 -0.0784
vn -0.9134 -0.3996 -0.0781
vn 0.5030 0.0001 0.8643
vn 0.5000 -0.0000 0.8660
vn 0.0959 -0.9533 -0.2864
vn 0.0873 -0.9526 -0.2913
vn 0.1039 -0.9539 -0.2817
vn 0.9778 -0.2024 -0.0541
vn 0.9779 -0.2019 -0.0543
vn 0.5007 0.8390 0.2130
vn 0.5017 0.8383 0.2135
vn 0.5028 0.8375 0.2141
vn -0.6701 0.7195 0.1825
vn -0.6712 0.7183 0.1831
vn -0.6689 0.7207 0.1819
vn -0.9132 -0.3940 -0.1038
vn -0.9141 -0.3917 -0.1047
vn -0.9122 -0.3966 -0.1029
vn -0.6566 0.6533 0.3768
vn -0.6543 0.6538 0.3801
vn -0.6475 0.6550 0.3896
vn -0.6512 0.1545 0.7430
vn -0.6574 0.1485 0.7387
vn -0.6454 0.1601 0.7469
vn 0.4865 0.7551 0.4395
vn 0.4837 0.7551 0.4426
vn 0.4949 0.7548 0.4304
vn 0.4807 0.1806 0.8581
vn 0.4873 0.1754 0.8554
vn 0.4945 0.1698 0.8524
vn 0.9737 -0.1951 -0.1179
vn 0.9786 -0.0568 -0.1976
vn 0.9779 -0.0548 -0.2019
vn 0.9814 -0.0647 -0.1807
vn 0.0989 -0.3814 -0.9191
vn 0.0985 -0.3810 -0.9193
vn 0.1024 -0.3842 -0.9176
vn -0.9043 -0.3696 -0.2137
vn -0.9216 -0.1071 -0.3732
vn -0.9193 -0.1035 -0.3797
vn -0.9063 -0.0843 -0.4141
vn 0.4577 0.1544 -0.8756
vn -0.4577 0.1544 -0.8756
vn -0.1557 -0.9498 -0.2714
vn -0.4577 -0.1666 0.8734
vn 0.1557 -0.9498 -0.2714
vn -0.3243 0.5813 0.7463
vn 0.3243 0.8084 -0.4913
vn 0.3538 0.5521 0.7550
vn -0.3538 0.7842 -0.5098
vn 0.4577 -0.1666 0.8734
vn -0.4638 -0.6673 0.5827
vn -0.4160 -0.2705 -0.8682
vn 0.4160 -0.5611 0.7156
vn 0.4633 -0.4152 -0.7829
vn 0.9108 -0.4052 -0.0791
vn -0.9123 -0.4036 -0.0692
vn -0.9723 -0.2335 0.0106
vn 0.9723 -0.2148 -0.0917
vn 0.1582 -0.9838 -0.0843
vn -0.1582 -0.9838 -0.0843
vn -0.9104 0.0001 -0.4136
vn 0.1042 -0.0001 -0.9946
vn 0.9781 -0.0001 -0.2080
vn 0.9765 0.0001 -0.2157
vn -0.6727 0.0001 0.7399
vn 0.5003 0.8498 0.1661
vn -0.6704 0.7282 0.1425
vn -0.6695 0.7290 0.1425
vn -0.9128 -0.4009 -0.0784
vn -0.9132 -0.3999 -0.0782
vn 0.5029 0.0001 0.8643
vn 0.0795 -0.9519 -0.2958
vn 0.4997 0.8397 0.2125
vn -0.6724 0.7170 0.1838
vn -0.9151 -0.3892 -0.1056
vn -0.6652 0.6516 0.3646
vn -0.6648 0.1413 0.7336
vn 0.4767 0.7552 0.4500
vn 0.4747 0.1852 0.8604
vn 0.9751 -0.0479 -0.2167
vn 0.0952 -0.3783 -0.9208
vn -0.9339 -0.1283 -0.3338
vt 0.459630 0.907074
vt 0.465783 0.925787
vt 0.460066 0.925722
vt 0.463199 0.972415
vt 0.457047 0.967180
vt 0.462764 0.967116
vt 0.446074 0.941595
vt 0.447646 0.948373
vt 0.442534 0.943012
vt 0.451159 0.922818
vt 0.448689 0.902803
vt 0.454375 0.901744
vt 0.935243 0.568029
vt 0.929653 0.558722
vt 0.936524 0.559001
vt 0.456796 0.922081
vt 0.459630 0.903515
vt 0.460066 0.901744
vt 0.465347 0.907139
vt 0.922386 0.567521
vt 0.922780 0.558459
vt 0.463199 0.948373
vt 0.450656 0.926113
vt 0.450703 0.941213
vt 0.455124 0.926113
vt 0.458805 0.927354
vt 0.458805 0.945409
vt 0.451186 0.946956
vt 0.454799 0.944010
vt 0.445855 0.921369
vt 0.445700 0.902025
vt 0.442534 0.922766
vt 0.442534 0.979281
vt 0.448078 0.972948
vt 0.448078 0.979262
vt 0.951730 0.552365
vt 0.947600 0.548606
vt 0.952147 0.547266
vt 0.936899 0.569392
vt 0.928590 0.570202
vt 0.932922 0.571841
vt 0.927931 0.577129
vt 0.928480 0.572279
vt 0.952101 0.575274
vt 0.946988 0.571704
vt 0.951566 0.570207
vt 0.952101 0.584241
vt 0.948065 0.591608
vt 0.946825 0.583920
vt 0.951939 0.561286
vt 0.948304 0.568481
vt 0.946825 0.560788
vt 0.947939 0.552827
vt 0.948066 0.575885
vt 0.924077 0.549448
vt 0.930714 0.547266
vt 0.936899 0.549955
vt 0.432062 0.896270
vt 0.433041 0.924329
vt 0.432084 0.924060
vt 0.434016 0.896301
vt 0.434038 0.924091
vt 0.429820 0.895853
vt 0.415797 0.933016
vt 0.428719 0.895690
vt 0.400865 0.900773
vt 0.415364 0.937858
vt 0.414264 0.938027
vt 0.431775 0.932796
vt 0.430106 0.895692
vt 0.432062 0.895690
vt 0.401964 0.900604
vt 0.416899 0.933179
vt 0.433019 0.896539
vt 0.429820 0.932798
vt 0.433034 0.915066
vt 0.424411 0.908132
vt 0.425513 0.908295
vt 0.430011 0.908061
vt 0.431966 0.908059
vt 0.409798 0.925609
vt 0.432077 0.914797
vt 0.406431 0.913022
vt 0.405331 0.913191
vt 0.431871 0.920428
vt 0.420104 0.920574
vt 0.421206 0.920737
vt 0.434024 0.905564
vt 0.433026 0.905803
vt 0.432069 0.905533
vt 0.457482 0.972479
vt 0.465783 0.901810
vt 0.457482 0.948437
vt 0.459630 0.923879
vt 0.458733 0.948152
vt 0.442534 0.972966
vt 0.928438 0.571841
vt 0.932922 0.577882
vt 0.952101 0.593209
vt 0.952147 0.570207
vt 0.434031 0.914828
vt 0.410897 0.925440
vt 0.429915 0.920430
s 1
f 2/1/1 14/2/1 4/3/1
f 6/4/2 12/5/2 3/6/2
f 14/7/3 6/8/4 4/9/5
f 16/10/6 11/11/6 18/12/6
f 27/13/7 35/14/8 33/15/9
f 9/16/10 18/12/10 13/17/10
f 5/18/11 10/19/11 2/1/11
f 35/14/12 30/20/13 34/21/14
f 12/5/15 1/22/15 3/6/15
f 9/16/16 15/23/17 16/10/18
f 13/24/19 10/25/20 9/26/20
f 11/27/21 17/28/22 18/29/23
f 7/30/24 12/31/25 11/11/25
f 7/30/26 15/23/27 8/32/28
f 13/24/29 17/28/30 14/7/31
f 8/33/32 5/34/33 1/35/32
f 20/36/34 25/37/35 23/38/36
f 22/39/37 29/40/38 27/13/39
f 19/41/40 25/42/41 26/43/42
f 21/44/43 29/45/44 24/46/45
f 32/47/46 26/48/47 34/49/48
f 31/50/49 27/51/50 33/52/51
f 31/50/52 28/53/53 20/36/54
f 32/47/55 30/54/56 21/44/57
f 35/14/58 26/55/59 25/56/60
f 28/57/61 35/14/62 25/56/63
f 37/58/64 38/59/65 36/60/66
f 38/59/67 41/61/67 40/62/67
f 40/63/68 43/64/69 42/65/68
f 45/66/70 36/67/71 44/68/72
f 48/69/73 47/70/74 49/71/74
f 47/68/75 54/72/75 55/67/75
f 50/73/76 49/65/77 51/63/78
f 52/74/79 51/62/80 53/59/80
f 55/60/81 52/74/82 53/59/81
f 45/75/83 42/71/84 43/69/83
f 51/62/85 63/76/86 53/59/87
f 51/63/78 61/77/88 62/78/89
f 49/71/90 59/79/91 61/80/92
f 55/67/93 59/81/94 47/68/95
f 53/59/96 57/82/97 55/60/98
f 59/81/99 56/83/100 58/84/101
f 56/83/102 45/66/103 58/84/104
f 59/79/105 60/85/106 61/80/107
f 60/85/108 45/75/109 43/69/110
f 62/78/111 61/77/111 60/86/111
f 60/86/112 41/73/113 62/87/114
f 62/88/115 39/74/116 63/89/117
f 57/82/118 63/89/118 56/90/118
f 56/90/119 39/74/120 37/58/121
f 2/1/1 10/19/1 14/2/1
f 6/4/122 17/91/122 12/5/122
f 14/7/3 17/28/123 6/8/4
f 16/10/6 7/30/6 11/11/6
f 27/13/7 29/40/124 35/14/8
f 9/16/10 16/10/10 18/12/10
f 5/18/125 15/92/125 10/19/125
f 35/14/12 29/40/126 30/20/13
f 12/5/15 8/93/15 1/22/15
f 9/16/16 10/94/127 15/23/17
f 13/24/19 14/7/19 10/25/20
f 11/27/21 12/95/128 17/28/22
f 7/30/24 8/32/24 12/31/25
f 7/30/26 16/10/129 15/23/27
f 13/24/29 18/29/130 17/28/30
f 8/33/32 15/96/131 5/34/33
f 20/36/34 28/53/132 25/37/35
f 22/39/37 24/97/133 29/40/38
f 19/41/40 23/98/134 25/42/41
f 21/44/43 30/54/135 29/45/44
f 32/47/46 19/99/136 26/48/47
f 31/50/49 22/100/137 27/51/50
f 31/50/52 33/52/138 28/53/53
f 32/47/55 34/49/139 30/54/56
f 35/14/58 34/21/140 26/55/59
f 28/57/61 33/15/141 35/14/62
f 37/58/64 39/74/142 38/59/65
f 38/59/143 39/74/143 41/61/143
f 40/63/144 41/73/145 43/64/145
f 45/66/70 37/72/146 36/67/71
f 48/69/73 46/75/147 47/70/74
f 47/68/148 46/66/149 54/72/149
f 50/73/76 48/64/76 49/65/77
f 52/74/79 50/61/79 51/62/80
f 55/60/150 54/58/151 52/74/151
f 45/75/152 44/70/84 42/71/84
f 51/62/85 62/101/153 63/76/86
f 51/63/78 49/65/77 61/77/88
f 49/71/90 47/70/154 59/79/91
f 55/67/93 57/102/155 59/81/94
f 53/59/96 63/76/156 57/82/97
f 59/81/99 57/102/157 56/83/100
f 56/83/102 37/72/158 45/66/103
f 59/79/105 58/103/159 60/85/106
f 60/85/108 58/103/160 45/75/109
f 60/86/112 43/64/161 41/73/113
f 62/88/115 41/61/162 39/74/116
f 56/90/119 63/89/163 39/74/120
